<svg width="50" height="40" viewBox="0 0 50 40" fill="none" xmlns="http://www.w3.org/2000/svg">
<path d="M45.56 3.44791C48.4488 6.6465 50 10.2363 50 16.0555C50 26.2901 43.1118 35.4653 33.0897 40L30.5865 35.971C39.939 30.6931 41.7667 23.8474 42.4974 19.5309C40.9916 20.3431 39.0203 20.6285 37.088 20.4419C32.0284 19.9526 28.0407 15.6203 28.0407 10.2363C28.0407 4.58294 32.4347 0 37.855 0C40.864 0 43.7413 1.4344 45.56 3.44791ZM17.5192 3.44791C20.408 6.6465 21.9592 10.2363 21.9592 16.0555C21.9592 26.2901 15.0709 35.4653 5.04892 40L2.54574 35.971C11.898 30.6931 13.7259 23.8474 14.4565 19.5309C12.9507 20.3431 10.9796 20.6285 9.0472 20.4419C3.9876 19.9526 0 15.6203 0 10.2363C0 4.58294 4.394 0 9.81429 0C12.8232 0 15.7006 1.4344 17.5192 3.44791Z" fill="#FFBE55"/>
</svg>
